<svg width="24" height="24" viewBox="0 0 24 24" fill="none" xmlns="http://www.w3.org/2000/svg">
<path d="M6.04403 20C5.68403 20 5.35803 19.8947 5.06603 19.684C4.77337 19.4727 4.5797 19.189 4.48503 18.833L2.28003 11.025C2.20937 10.7723 2.25403 10.5383 2.41403 10.323C2.57337 10.1077 2.7877 10 3.05703 10H7.75003L11.342 4.584C11.4254 4.464 11.5227 4.375 11.634 4.317C11.746 4.25967 11.8727 4.231 12.014 4.231C12.1554 4.231 12.2814 4.263 12.392 4.327C12.5027 4.391 12.6 4.48334 12.684 4.604L16.238 10H20.942C21.2114 10 21.429 10.1077 21.595 10.323C21.7617 10.5383 21.803 10.7723 21.719 11.025L19.477 18.833C19.3817 19.189 19.1884 19.4723 18.897 19.683C18.6037 19.8943 18.277 20 17.917 20H6.04403ZM5.96203 19H18.039C18.1797 19 18.3014 18.9583 18.404 18.875C18.5067 18.7917 18.577 18.6797 18.615 18.539L20.7 11H3.30003L5.38503 18.539C5.42303 18.6797 5.49337 18.7917 5.59603 18.875C5.6987 18.9583 5.8207 19 5.96203 19ZM12.701 15.701C12.9004 15.5017 13 15.268 13 15C13 14.732 12.9004 14.4983 12.701 14.299C12.5017 14.0997 12.268 14 12 14C11.732 14 11.4984 14.0997 11.299 14.299C11.0997 14.4983 11 14.732 11 15C11 15.268 11.0997 15.5017 11.299 15.701C11.4984 15.9003 11.732 16 12 16C12.268 16 12.5017 15.9003 12.701 15.701ZM8.96403 10H15.031L11.994 5.377L8.96403 10Z" fill="black"/>
</svg>
